<?xml version="1.0" encoding="UTF-8" standalone="no"?>
<!DOCTYPE svg PUBLIC "-//W3C//DTD SVG 1.1//EN"
 "http://www.w3.org/Graphics/SVG/1.1/DTD/svg11.dtd">
<!-- Generated by graphviz version 2.38.0 (20140413.2041)
 -->
<!-- Title: dependency&#45;cruiser output Pages: 1 -->
<svg width="180pt" height="136pt"
 viewBox="0.00 0.00 180.00 136.00" xmlns="http://www.w3.org/2000/svg" xmlns:xlink="http://www.w3.org/1999/xlink">
<g id="graph0" class="graph" transform="scale(1 1) rotate(0) translate(4 132)">
<title>dependency&#45;cruiser output</title>
<g id="clust1" class="cluster"><title>cluster_src</title>
<path fill="#ffffff" stroke="black" stroke-width="2" d="M28,-68C28,-68 152,-68 152,-68 158,-68 164,-74 164,-80 164,-80 164,-108 164,-108 164,-114 158,-120 152,-120 152,-120 28,-120 28,-120 22,-120 16,-114 16,-108 16,-108 16,-80 16,-80 16,-74 22,-68 28,-68"/>
<text text-anchor="middle" x="90" y="-108.8" font-family="Helvetica,sans-Serif" font-weight="bold" font-size="9.00">src</text>
</g>
<g id="clust2" class="cluster"><title>cluster_test</title>
<path fill="#ffffff" stroke="black" stroke-width="2" d="M20,-8C20,-8 82,-8 82,-8 88,-8 94,-14 94,-20 94,-20 94,-48 94,-48 94,-54 88,-60 82,-60 82,-60 20,-60 20,-60 14,-60 8,-54 8,-48 8,-48 8,-20 8,-20 8,-14 14,-8 20,-8"/>
<text text-anchor="middle" x="51" y="-48.8" font-family="Helvetica,sans-Serif" font-weight="bold" font-size="9.00">test</text>
</g>
<!-- src/app.js -->
<g id="node1" class="node"><title>src/app.js</title>
<g id="a_node1"><a xlink:href="src/app.js" xlink:title="app.js">
<path fill="#ffffcc" stroke="black" d="M72,-94C72,-94 30,-94 30,-94 27,-94 24,-91 24,-88 24,-88 24,-82 24,-82 24,-79 27,-76 30,-76 30,-76 72,-76 72,-76 75,-76 78,-79 78,-82 78,-82 78,-88 78,-88 78,-91 75,-94 72,-94"/>
<text text-anchor="middle" x="51" y="-82.8" font-family="Helvetica,sans-Serif" font-size="9.00">app.js</text>
</a>
</g>
</g>
<!-- src/shape.js -->
<g id="node2" class="node"><title>src/shape.js</title>
<g id="a_node2"><a xlink:href="src/shape.js" xlink:title="shape.js">
<path fill="#ffffcc" stroke="black" d="M150,-94C150,-94 108,-94 108,-94 105,-94 102,-91 102,-88 102,-88 102,-82 102,-82 102,-79 105,-76 108,-76 108,-76 150,-76 150,-76 153,-76 156,-79 156,-82 156,-82 156,-88 156,-88 156,-91 153,-94 150,-94"/>
<text text-anchor="middle" x="129" y="-82.8" font-family="Helvetica,sans-Serif" font-size="9.00">shape.js</text>
</a>
</g>
</g>
<!-- src/app.js&#45;&gt;src/shape.js -->
<g id="edge1" class="edge"><title>src/app.js&#45;&gt;src/shape.js</title>
<path fill="none" stroke="#999999" d="M78.1549,-85C84.1259,-85 90.5305,-85 96.6926,-85"/>
<polygon fill="#999999" stroke="#999999" points="96.7969,-86.7501 101.797,-85 96.7969,-83.2501 96.7969,-86.7501"/>
</g>
<!-- test/shape.test.js -->
<g id="node3" class="node"><title>test/shape.test.js</title>
<g id="a_node3"><a xlink:href="test/shape.test.js" xlink:title="shape.test.js">
<path fill="#ffffcc" stroke="black" d="M80,-34C80,-34 22,-34 22,-34 19,-34 16,-31 16,-28 16,-28 16,-22 16,-22 16,-19 19,-16 22,-16 22,-16 80,-16 80,-16 83,-16 86,-19 86,-22 86,-22 86,-28 86,-28 86,-31 83,-34 80,-34"/>
<text text-anchor="middle" x="51" y="-22.8" font-family="Helvetica,sans-Serif" font-size="9.00">shape.test.js</text>
</a>
</g>
</g>
<!-- test/shape.test.js&#45;&gt;src/shape.js -->
<g id="edge2" class="edge"><title>test/shape.test.js&#45;&gt;src/shape.js</title>
<path fill="none" stroke="#999999" d="M63.5428,-34.1127C76.4882,-44.3328 97.5661,-60.9732 112.074,-72.4265"/>
<polygon fill="#999999" stroke="#999999" points="111.34,-74.0768 116.349,-75.8015 113.509,-71.3297 111.34,-74.0768"/>
</g>
</g>
</svg>
